<?xml version="1.0" encoding="utf-8" standalone="no"?>
<!DOCTYPE svg PUBLIC "-//W3C//DTD SVG 1.1//EN"
  "http://www.w3.org/Graphics/SVG/1.1/DTD/svg11.dtd">
<svg xmlns:xlink="http://www.w3.org/1999/xlink" width="336.8pt" height="361.44pt" viewBox="0 0 336.8 361.44" xmlns="http://www.w3.org/2000/svg" version="1.1">
 <metadata>
  <rdf:RDF xmlns:dc="http://purl.org/dc/elements/1.1/" xmlns:cc="http://creativecommons.org/ns#" xmlns:rdf="http://www.w3.org/1999/02/22-rdf-syntax-ns#">
   <cc:Work>
    <dc:type rdf:resource="http://purl.org/dc/dcmitype/StillImage"/>
    <dc:date>2024-12-20T17:56:16.532697</dc:date>
    <dc:format>image/svg+xml</dc:format>
    <dc:creator>
     <cc:Agent>
      <dc:title>Matplotlib v3.10.0, https://matplotlib.org/</dc:title>
     </cc:Agent>
    </dc:creator>
   </cc:Work>
  </rdf:RDF>
 </metadata>
 <defs>
  <style type="text/css">*{stroke-linejoin: round; stroke-linecap: butt}</style>
 </defs>
 <g id="figure_1">
  <g id="patch_1">
   <path d="M 0 361.44 
L 336.8 361.44 
L 336.8 0 
L 0 0 
L 0 361.44 
z
" style="fill: none"/>
  </g>
  <g id="axes_1">
   <g id="patch_2">
    <path d="M 45.2 266.96 
L 45.2 143.76 
L 168.4 266.96 
z
" clip-path="url(#p029eb70b3e)" style="fill: #5b5ea6; stroke: #5b5ea6; stroke-linejoin: miter"/>
   </g>
   <g id="patch_3">
    <path d="M 168.4 266.96 
L 291.6 143.76 
L 291.6 266.96 
z
" clip-path="url(#p029eb70b3e)" style="fill: #5b5ea6; stroke: #5b5ea6; stroke-linejoin: miter"/>
   </g>
   <g id="patch_4">
    <path d="M 76 266.96 
L 168.4 125.28 
L 260.8 266.96 
z
" clip-path="url(#p029eb70b3e)" style="fill: #5b5ea6; stroke: #5b5ea6; stroke-linejoin: miter"/>
   </g>
   <g id="patch_5">
    <path d="M 45.2 131.44 
C 50.100953 131.44 54.801836 129.492831 58.267333 126.027333 
C 61.732831 122.561836 63.68 117.860953 63.68 112.96 
C 63.68 108.059047 61.732831 103.358164 58.267333 99.892667 
C 54.801836 96.427169 50.100953 94.48 45.2 94.48 
C 40.299047 94.48 35.598164 96.427169 32.132667 99.892667 
C 28.667169 103.358164 26.72 108.059047 26.72 112.96 
C 26.72 117.860953 28.667169 122.561836 32.132667 126.027333 
C 35.598164 129.492831 40.299047 131.44 45.2 131.44 
z
" clip-path="url(#p029eb70b3e)" style="fill: #c3c9e9; stroke: #c3c9e9; stroke-linejoin: miter"/>
   </g>
   <g id="patch_6">
    <path d="M 168.4 100.64 
C 173.300953 100.64 178.001836 98.692831 181.467333 95.227333 
C 184.932831 91.761836 186.88 87.060953 186.88 82.16 
C 186.88 77.259047 184.932831 72.558164 181.467333 69.092667 
C 178.001836 65.627169 173.300953 63.68 168.4 63.68 
C 163.499047 63.68 158.798164 65.627169 155.332667 69.092667 
C 151.867169 72.558164 149.92 77.259047 149.92 82.16 
C 149.92 87.060953 151.867169 91.761836 155.332667 95.227333 
C 158.798164 98.692831 163.499047 100.64 168.4 100.64 
z
" clip-path="url(#p029eb70b3e)" style="fill: #c3c9e9; stroke: #c3c9e9; stroke-linejoin: miter"/>
   </g>
   <g id="patch_7">
    <path d="M 291.6 131.44 
C 296.500953 131.44 301.201836 129.492831 304.667333 126.027333 
C 308.132831 122.561836 310.08 117.860953 310.08 112.96 
C 310.08 108.059047 308.132831 103.358164 304.667333 99.892667 
C 301.201836 96.427169 296.500953 94.48 291.6 94.48 
C 286.699047 94.48 281.998164 96.427169 278.532667 99.892667 
C 275.067169 103.358164 273.12 108.059047 273.12 112.96 
C 273.12 117.860953 275.067169 122.561836 278.532667 126.027333 
C 281.998164 129.492831 286.699047 131.44 291.6 131.44 
z
" clip-path="url(#p029eb70b3e)" style="fill: #c3c9e9; stroke: #c3c9e9; stroke-linejoin: miter"/>
   </g>
   <g id="patch_8">
    <path d="M 45.2 297.76 
L 291.6 297.76 
L 291.6 285.44 
L 45.2 285.44 
z
" clip-path="url(#p029eb70b3e)" style="fill: #9c9ede; stroke: #9c9ede; stroke-linejoin: miter"/>
   </g>
   <g id="patch_9">
    <path d="M 45.2 316.24 
L 291.6 316.24 
L 291.6 303.92 
L 45.2 303.92 
z
" clip-path="url(#p029eb70b3e)" style="fill: #c3c9e9; stroke: #c3c9e9; stroke-linejoin: miter"/>
   </g>
  </g>
 </g>
 <defs>
  <clipPath id="p029eb70b3e">
   <rect x="14.4" y="14.4" width="308" height="332.64"/>
  </clipPath>
 </defs>
</svg>
